<svg width="428" height="301" viewBox="0 0 428 301" fill="none" xmlns="http://www.w3.org/2000/svg">
<path d="M150.109 50.7188C148.859 53.9375 146.938 56.2969 144.344 57.7969C141.75 59.2656 137.984 60 133.047 60H129.859V48.6562H130.656C132.812 48.6562 134.531 48.25 135.812 47.4375C137.062 46.625 137.953 45.3906 138.484 43.7344C139.016 42.0469 139.281 39.5 139.281 36.0938V13.1719H130.375V1.82812H163C172 1.82812 178.453 3.73438 182.359 7.54688C186.297 11.3281 188.266 17.6094 188.266 26.3906V60H175.562V26.5781C175.562 21.5781 174.547 18.0938 172.516 16.125C170.484 14.1562 167.062 13.1719 162.25 13.1719H151.938V37.7344C151.938 43.1406 151.328 47.4688 150.109 50.7188ZM216.719 1.82812V60H204.062V1.82812H216.719ZM270.953 13.1719V60H258.297V13.1719H226.797V1.82812H278.172V13.1719H270.953ZM301.562 1.82812V60H288.906V1.82812H301.562ZM367.797 48.6562V60H313.562V48.6562H348.906V27.9375C348.906 22.4688 347.875 18.6406 345.812 16.4531C343.781 14.2656 340.297 13.1719 335.359 13.1719H315.766V1.82812H335.547C344.672 1.82812 351.281 3.73438 355.375 7.54688C359.5 11.3594 361.562 17.6094 361.562 26.2969V48.6562H367.797ZM373.141 49.7344C381.234 49.5781 387.5 48.7812 391.938 47.3438L375.344 1.82812H389.078L402.906 41.6719C405.281 39.7656 407.172 37.1719 408.578 33.8906C410.016 30.5781 411.062 26.3125 411.719 21.0938C412.375 15.8438 412.703 9.42188 412.703 1.82812H425.734C425.734 16.7969 424.078 28.4531 420.766 36.7969C418.547 42.4219 415.438 47.0469 411.438 50.6719C407.438 54.2656 402.312 56.9844 396.062 58.8281C389.812 60.6719 382.172 61.7969 373.141 62.2031V49.7344Z" fill="black"/>
<path d="M137.405 81.5579L137.407 81.5529C138.509 78.1983 139.05 73.7662 139.05 68.278V43.9612H147.682C151.884 43.9612 154.741 44.9441 156.402 46.7802C158.07 48.6248 158.971 51.9819 158.971 57.0062V90.7741V91.2741H159.471H170.719H171.219V90.7741V56.8168C171.219 47.9032 169.472 41.4017 165.86 37.4424C162.265 33.44 156.381 31.5 148.346 31.5H119.457H118.957V32V43.4612V43.9612H119.457H126.843V66.6203C126.843 70.05 126.608 72.5679 126.156 74.2059C125.708 75.7992 124.971 76.9391 123.976 77.6783C122.953 78.4174 121.546 78.8129 119.706 78.8129H119H118.5V79.3129V90.7741V91.2741H119H121.823C126.238 91.2741 129.685 90.5269 132.097 88.9681L132.101 88.9655C134.512 87.375 136.271 84.8883 137.405 81.5579ZM196.415 32V31.5H195.915H184.708H184.208V32V90.7741V91.2741H184.708H195.915H196.415V90.7741V32ZM243.94 91.2741H244.44V90.7741V43.9612H250.332H250.832V43.4612V32V31.5H250.332H204.839H204.339V32V43.4612V43.9612H204.839H232.233V90.7741V91.2741H232.733H243.94ZM271.545 32V31.5H271.045H259.837H259.337V32V90.7741V91.2741H259.837H271.045H271.545V90.7741V32ZM330.196 79.3129V78.8129H329.696H324.675V56.7221C324.675 47.8954 322.842 41.4234 319.059 37.4339C315.299 33.4399 309.283 31.5 301.138 31.5H283.622H283.122V32V43.4612V43.9612H283.622H300.972C305.275 43.9612 308.178 45.0496 309.841 47.092L309.843 47.0949C311.552 49.1634 312.468 52.8777 312.468 58.3797V78.8129H281.671H281.171V79.3129V90.7741V91.2741H281.671H329.696H330.196V90.7741V79.3129ZM334.417 79.9023L333.928 79.9131V80.4022V93V93.5263L334.453 93.4993C342.481 93.0874 349.294 91.9456 354.885 90.0639C360.483 88.1797 365.093 85.3942 368.698 81.6985L368.699 81.697C372.3 77.9734 375.088 73.234 377.073 67.4941C380.033 58.987 381.5 47.1459 381.5 32V31.5H381H369.461H368.961V32C368.961 39.6612 368.67 46.13 368.092 51.4103C367.514 56.6591 366.593 60.9235 365.341 64.2167L365.34 64.2186C364.234 67.1627 362.793 69.5268 361.026 71.3286L349.019 31.8545L348.911 31.5H348.541H336.379H335.694L335.902 32.1522L350.449 77.6787C346.623 79.0026 341.288 79.7509 334.417 79.9023ZM360.785 72.2562C360.922 72.1308 361.058 72.0024 361.191 71.8711L360.624 71.7239L360.785 72.2562Z" stroke="#171616" stroke-opacity="0.4"/>
<path d="M366.073 90.0719C369.032 81.4275 370.5 69.3939 370.5 54V53.5H370H358.461H357.961V54C357.961 61.7871 357.671 68.3626 357.092 73.7303C356.513 79.0659 355.593 83.4016 354.34 86.7502L354.339 86.7521C353.233 89.744 351.792 92.1468 350.027 93.9782L338.02 53.8566L337.913 53.5H337.541H325.379H324.697L324.902 54.15L339.452 100.434C335.627 101.781 330.291 102.542 323.417 102.696L322.928 102.707V103.196V116V116.527L323.454 116.499C331.482 116.081 338.296 114.92 343.887 113.007C349.486 111.092 354.096 108.26 357.701 104.505L357.702 104.503C361.302 100.719 364.09 95.9037 366.073 90.0719ZM366.073 90.0719L365.601 89.9102L366.073 90.0709C366.073 90.0713 366.073 90.0716 366.073 90.0719ZM126.406 104.365L126.407 104.36C127.509 100.953 128.05 96.45 128.05 90.8727V66.1491H136.682C140.882 66.1491 143.738 67.1473 145.399 69.014C147.069 70.8915 147.971 74.3077 147.971 79.4161V113.738V114.238H148.471H159.719H160.219V113.738V79.2236C160.219 70.166 158.473 63.5617 154.862 59.54C151.268 55.4727 145.383 53.5 137.346 53.5H108.457H107.957V54V65.6491V66.1491H108.457H115.843V89.1879C115.843 92.6742 115.608 95.2351 115.155 96.902C114.706 98.5241 113.969 99.6842 112.973 100.436C111.95 101.187 110.544 101.589 108.706 101.589H108H107.5V102.089V113.738V114.238H108H110.823C115.24 114.238 118.687 113.478 121.101 111.893L121.105 111.89C123.515 110.274 125.273 107.748 126.406 104.365ZM185.415 54V53.5H184.915H173.708H173.208V54V113.738V114.238H173.708H184.915H185.415V113.738V54ZM232.94 114.238H233.44V113.738V66.1491H239.332H239.832V65.6491V54V53.5H239.332H193.839H193.339V54V65.6491V66.1491H193.839H221.233V113.738V114.238H221.733H232.94ZM260.545 54V53.5H260.045H248.837H248.337V54V113.738V114.238H248.837H260.045H260.545V113.738V54ZM319.196 102.089V101.589H318.696H313.675V79.1273C313.675 70.1594 311.843 63.5857 308.063 59.533C304.304 55.473 298.286 53.5 290.138 53.5H272.622H272.122V54V65.6491V66.1491H272.622H289.972C294.273 66.1491 297.175 67.2543 298.838 69.3312L298.84 69.3341C300.552 71.4392 301.468 75.2185 301.468 80.8121V101.589H270.671H270.171V102.089V113.738V114.238H270.671H318.696H319.196V113.738V102.089Z" stroke="#171616" stroke-opacity="0.4"/>
<path d="M111.337 134.557L111.338 134.552C112.437 131.198 112.976 126.766 112.976 121.278V96.9612H121.573C125.758 96.9612 128.603 97.9439 130.257 99.7795C131.919 101.624 132.816 104.982 132.816 110.006V143.774V144.274H133.316H144.522H145.022V143.774V109.817C145.022 100.904 143.282 94.4026 139.683 90.4433C136.102 86.4404 130.239 84.5 122.234 84.5H93.4548H92.9548V85V96.4612V96.9612H93.4548H100.811V119.62C100.811 123.05 100.577 125.568 100.127 127.206C99.6801 128.8 98.9466 129.94 97.9554 130.679C96.9368 131.418 95.5356 131.813 93.7029 131.813H93H92.5V132.313V143.774V144.274H93H95.8118C100.211 144.274 103.645 143.527 106.049 141.968L106.053 141.965C108.455 140.374 110.208 137.887 111.337 134.557ZM170.121 85V84.5H169.621H158.457H157.957V85V143.774V144.274H158.457H169.621H170.121V143.774V85ZM217.463 144.274H217.963V143.774V96.9612H223.831H224.331V96.4612V85V84.5H223.831H178.511H178.011V85V96.4612V96.9612H178.511H205.798V143.774V144.274H206.298H217.463ZM244.964 85V84.5H244.464H233.3H232.8V85V143.774V144.274H233.3H244.464H244.964V143.774V85ZM303.392 132.313V131.813H302.892H297.892V109.722C297.892 100.896 296.066 94.4248 292.298 90.4353C288.552 86.4404 282.558 84.5 274.443 84.5H256.993H256.493V85V96.4612V96.9612H256.993H274.278C278.563 96.9612 281.455 98.0493 283.11 100.091L283.113 100.094C284.815 102.163 285.728 105.877 285.728 111.38V131.813H255.05H254.55V132.313V143.774V144.274H255.05H302.892H303.392V143.774V132.313ZM307.594 132.902L307.106 132.913V133.402V146V146.526L307.631 146.499C315.628 146.087 322.416 144.946 327.986 143.064C333.563 141.179 338.155 138.394 341.747 134.698L341.748 134.696C345.336 130.973 348.113 126.233 350.09 120.494C353.038 111.987 354.5 100.146 354.5 85V84.5H354H342.505H342.005V85C342.005 92.6612 341.716 99.1301 341.139 104.41C340.563 109.659 339.646 113.924 338.398 117.217L338.398 117.219C337.297 120.162 335.862 122.525 334.103 124.326L322.143 84.855L322.035 84.5H321.664H309.549H308.865L309.073 85.1517L323.564 130.679C319.753 132.003 314.439 132.751 307.594 132.902Z" stroke="#171616" stroke-opacity="0.4"/>
<path d="M334.073 151.072C337.032 142.427 338.5 130.394 338.5 115V114.5H338H326.461H325.961V115C325.961 122.787 325.671 129.363 325.092 134.73C324.513 140.066 323.593 144.402 322.34 147.75L322.339 147.752C321.233 150.744 319.792 153.147 318.027 154.978L306.02 114.857L305.913 114.5H305.541H293.379H292.697L292.902 115.15L307.452 161.434C303.627 162.781 298.291 163.542 291.417 163.696L290.928 163.707V164.196V177V177.527L291.454 177.499C299.482 177.081 306.296 175.92 311.887 174.007C317.486 172.092 322.096 169.26 325.701 165.505L325.702 165.503C329.302 161.719 332.09 156.904 334.073 151.072ZM334.073 151.072L333.601 150.91L334.073 151.071C334.073 151.071 334.073 151.072 334.073 151.072ZM94.4057 165.365L94.4073 165.36C95.5091 161.953 96.0504 157.45 96.0504 151.873V127.149H104.682C108.882 127.149 111.738 128.147 113.399 130.014C115.069 131.891 115.971 135.308 115.971 140.416V174.738V175.238H116.471H127.719H128.219V174.738V140.224C128.219 131.166 126.473 124.562 122.862 120.54C119.268 116.473 113.383 114.5 105.346 114.5H76.4566H75.9566V115V126.649V127.149H76.4566H83.8432V150.188C83.8432 153.674 83.6076 156.235 83.1553 157.902C82.7064 159.524 81.9689 160.684 80.973 161.436C79.9503 162.187 78.5444 162.589 76.7056 162.589H76H75.5V163.089V174.738V175.238H76H78.8226C83.2395 175.238 86.6871 174.478 89.1005 172.893L89.1045 172.89C91.5147 171.274 93.273 168.748 94.4057 165.365ZM153.415 115V114.5H152.915H141.708H141.208V115V174.738V175.238H141.708H152.915H153.415V174.738V115ZM200.94 175.238H201.44V174.738V127.149H207.332H207.832V126.649V115V114.5H207.332H161.839H161.339V115V126.649V127.149H161.839H189.233V174.738V175.238H189.733H200.94ZM228.545 115V114.5H228.045H216.837H216.337V115V174.738V175.238H216.837H228.045H228.545V174.738V115ZM287.196 163.089V162.589H286.696H281.675V140.127C281.675 131.159 279.843 124.586 276.063 120.533C272.304 116.473 266.286 114.5 258.138 114.5H240.622H240.122V115V126.649V127.149H240.622H257.972C262.273 127.149 265.175 128.254 266.838 130.331L266.84 130.334C268.552 132.439 269.468 136.219 269.468 141.812V162.589H238.671H238.171V163.089V174.738V175.238H238.671H286.696H287.196V174.738V163.089Z" stroke="#171616" stroke-opacity="0.4"/>
<path d="M302.073 212.072C305.032 203.427 306.5 191.394 306.5 176V175.5H306H294.461H293.961V176C293.961 183.787 293.671 190.363 293.092 195.73C292.513 201.066 291.593 205.402 290.34 208.75L290.339 208.752C289.233 211.744 287.792 214.147 286.027 215.978L274.02 175.857L273.913 175.5H273.541H261.379H260.697L260.902 176.15L275.452 222.434C271.627 223.781 266.291 224.542 259.417 224.696L258.928 224.707V225.196V238V238.527L259.454 238.499C267.482 238.081 274.296 236.92 279.887 235.007C285.486 233.092 290.096 230.26 293.701 226.505L293.702 226.503C297.302 222.719 300.09 217.904 302.073 212.072ZM302.073 212.072L301.601 211.91L302.073 212.071C302.073 212.071 302.073 212.072 302.073 212.072ZM62.4057 226.365L62.4073 226.36C63.5091 222.953 64.0504 218.45 64.0504 212.873V188.149H72.6822C76.8819 188.149 79.7382 189.147 81.3989 191.014C83.0693 192.891 83.9705 196.308 83.9705 201.416V235.738V236.238H84.4705H95.7193H96.2193V235.738V201.224C96.2193 192.166 94.4728 185.562 90.8625 181.54C87.2679 177.473 81.3828 175.5 73.3463 175.5H44.4566H43.9566V176V187.649V188.149H44.4566H51.8432V211.188C51.8432 214.674 51.6076 217.235 51.1553 218.902C50.7064 220.524 49.9689 221.684 48.973 222.436C47.9503 223.187 46.5444 223.589 44.7056 223.589H44H43.5V224.089V235.738V236.238H44H46.8226C51.2395 236.238 54.6871 235.478 57.1005 233.893L57.1045 233.89C59.5147 232.274 61.273 229.748 62.4057 226.365ZM121.415 176V175.5H120.915H109.708H109.208V176V235.738V236.238H109.708H120.915H121.415V235.738V176ZM168.94 236.238H169.44V235.738V188.149H175.332H175.832V187.649V176V175.5H175.332H129.839H129.339V176V187.649V188.149H129.839H157.233V235.738V236.238H157.733H168.94ZM196.545 176V175.5H196.045H184.837H184.337V176V235.738V236.238H184.837H196.045H196.545V235.738V176ZM255.196 224.089V223.589H254.696H249.675V201.127C249.675 192.159 247.843 185.586 244.063 181.533C240.304 177.473 234.286 175.5 226.138 175.5H208.622H208.122V176V187.649V188.149H208.622H225.972C230.273 188.149 233.175 189.254 234.838 191.331L234.84 191.334C236.552 193.439 237.468 197.219 237.468 202.812V223.589H206.671H206.171V224.089V235.738V236.238H206.671H254.696H255.196V235.738V224.089Z" stroke="#171616" stroke-opacity="0.4"/>
<path d="M45.3367 256.557L45.3383 256.552C46.4365 253.198 46.9758 248.766 46.9758 243.278V218.961H55.5727C59.7578 218.961 62.6033 219.944 64.2568 221.78C65.9185 223.624 66.8161 226.982 66.8161 232.006V265.774V266.274H67.3161H78.5219H79.0219V265.774V231.817C79.0219 222.904 77.2817 216.403 73.6833 212.443C70.1015 208.44 64.2389 206.5 56.2343 206.5H27.4548H26.9548V207V218.461V218.961H27.4548H34.8113V241.62C34.8113 245.05 34.5766 247.568 34.1266 249.206C33.6801 250.8 32.9466 251.94 31.9554 252.679C30.9368 253.418 29.5356 253.813 27.7029 253.813H27H26.5V254.313V265.774V266.274H27H29.8118C34.2113 266.274 37.6451 265.527 40.0492 263.968L40.0532 263.965C42.4548 262.374 44.2075 259.887 45.3367 256.557ZM104.121 207V206.5H103.621H92.4567H91.9567V207V265.774V266.274H92.4567H103.621H104.121V265.774V207ZM151.463 266.274H151.963V265.774V218.961H157.831H158.331V218.461V207V206.5H157.831H112.511H112.011V207V218.461V218.961H112.511H139.798V265.774V266.274H140.298H151.463ZM178.964 207V206.5H178.464H167.3H166.8V207V265.774V266.274H167.3H178.464H178.964V265.774V207ZM237.392 254.313V253.813H236.892H231.892V231.722C231.892 222.896 230.066 216.425 226.298 212.435C222.552 208.44 216.558 206.5 208.443 206.5H190.993H190.493V207V218.461V218.961H190.993H208.278C212.563 218.961 215.455 220.049 217.11 222.091L217.113 222.094C218.815 224.163 219.728 227.877 219.728 233.38V253.813H189.05H188.55V254.313V265.774V266.274H189.05H236.892H237.392V265.774V254.313ZM241.594 254.902L241.106 254.913V255.402V268V268.526L241.631 268.499C249.628 268.087 256.416 266.946 261.986 265.064C267.563 263.179 272.155 260.394 275.747 256.698L275.748 256.696C279.336 252.973 282.113 248.233 284.09 242.494C287.038 233.987 288.5 222.146 288.5 207V206.5H288H276.505H276.005V207C276.005 214.661 275.716 221.13 275.139 226.41C274.563 231.659 273.646 235.924 272.398 239.217L272.398 239.219C271.297 242.162 269.862 244.525 268.103 246.326L256.143 206.855L256.035 206.5H255.664H243.549H242.865L243.073 207.152L257.564 252.679C253.753 254.003 248.439 254.751 241.594 254.902Z" stroke="#171616" stroke-opacity="0.4"/>
<path d="M266.073 273.072C269.032 264.427 270.5 252.394 270.5 237V236.5H270H258.461H257.961V237C257.961 244.787 257.671 251.363 257.092 256.73C256.513 262.066 255.593 266.402 254.34 269.75L254.339 269.752C253.233 272.744 251.792 275.147 250.027 276.978L238.02 236.857L237.913 236.5H237.541H225.379H224.697L224.902 237.15L239.452 283.434C235.627 284.781 230.291 285.542 223.417 285.696L222.928 285.707V286.196V299V299.527L223.454 299.499C231.482 299.081 238.296 297.92 243.887 296.007C249.486 294.092 254.096 291.26 257.701 287.505L257.702 287.503C261.302 283.719 264.09 278.904 266.073 273.072ZM266.073 273.072L265.601 272.91L266.073 273.071C266.073 273.071 266.073 273.072 266.073 273.072ZM26.4057 287.365L26.4073 287.36C27.5091 283.953 28.0504 279.45 28.0504 273.873V249.149H36.6822C40.8819 249.149 43.7382 250.147 45.3989 252.014C47.0693 253.891 47.9705 257.308 47.9705 262.416V296.738V297.238H48.4705H59.7193H60.2193V296.738V262.224C60.2193 253.166 58.4728 246.562 54.8625 242.54C51.2679 238.473 45.3828 236.5 37.3463 236.5H8.45659H7.95659V237V248.649V249.149H8.45659H15.8432V272.188C15.8432 275.674 15.6076 278.235 15.1553 279.902C14.7064 281.524 13.9689 282.684 12.973 283.436C11.9503 284.187 10.5444 284.589 8.70564 284.589H8H7.5V285.089V296.738V297.238H8H10.8226C15.2395 297.238 18.6871 296.478 21.1005 294.893L21.1045 294.89C23.5147 293.274 25.273 290.748 26.4057 287.365ZM85.4148 237V236.5H84.9148H73.7075H73.2075V237V296.738V297.238H73.7075H84.9148H85.4148V296.738V237ZM132.94 297.238H133.44V296.738V249.149H139.332H139.832V248.649V237V236.5H139.332H93.839H93.339V237V248.649V249.149H93.839H121.233V296.738V297.238H121.733H132.94ZM160.545 237V236.5H160.045H148.837H148.337V237V296.738V297.238H148.837H160.045H160.545V296.738V237ZM219.196 285.089V284.589H218.696H213.675V262.127C213.675 253.159 211.843 246.586 208.063 242.533C204.304 238.473 198.286 236.5 190.138 236.5H172.622H172.122V237V248.649V249.149H172.622H189.972C194.273 249.149 197.175 250.254 198.838 252.331L198.84 252.334C200.552 254.439 201.468 258.219 201.468 263.812V284.589H170.671H170.171V285.089V296.738V297.238H170.671H218.696H219.196V296.738V285.089Z" stroke="#171616" stroke-opacity="0.4"/>
<path d="M77.4049 195.558L77.4066 195.553C78.5091 192.198 79.0504 187.766 79.0504 182.278V157.961H87.6822C91.884 157.961 94.7413 158.944 96.4016 160.78C98.0696 162.625 98.9705 165.982 98.9705 171.006V204.774V205.274H99.4705H110.719H111.219V204.774V170.817C111.219 161.903 109.472 155.402 105.86 151.442C102.265 147.44 96.3807 145.5 88.3463 145.5H59.4566H58.9566V146V157.461V157.961H59.4566H66.8432V180.62C66.8432 184.05 66.6076 186.568 66.1559 188.206C65.7077 189.799 64.9714 190.939 63.9759 191.678C62.9529 192.417 61.5458 192.813 59.7056 192.813H59H58.5V193.313V204.774V205.274H59H61.8226C66.2385 205.274 69.6847 204.527 72.0974 202.968L72.1014 202.965C74.5118 201.375 76.2713 198.888 77.4049 195.558ZM136.415 146V145.5H135.915H124.708H124.208V146V204.774V205.274H124.708H135.915H136.415V204.774V146ZM183.94 205.274H184.44V204.774V157.961H190.332H190.832V157.461V146V145.5H190.332H144.839H144.339V146V157.461V157.961H144.839H172.233V204.774V205.274H172.733H183.94ZM211.545 146V145.5H211.045H199.837H199.337V146V204.774V205.274H199.837H211.045H211.545V204.774V146ZM270.196 193.313V192.813H269.696H264.675V170.722C264.675 161.895 262.842 155.423 259.059 151.434C255.299 147.44 249.283 145.5 241.138 145.5H223.622H223.122V146V157.461V157.961H223.622H240.972C245.275 157.961 248.178 159.05 249.841 161.092L249.843 161.095C251.552 163.163 252.468 166.878 252.468 172.38V192.813H221.671H221.171V193.313V204.774V205.274H221.671H269.696H270.196V204.774V193.313ZM274.417 193.902L273.928 193.913V194.402V207V207.526L274.453 207.499C282.481 207.087 289.294 205.946 294.885 204.064C300.483 202.18 305.093 199.394 308.698 195.699L308.699 195.697C312.3 191.973 315.088 187.234 317.073 181.494C320.033 172.987 321.5 161.146 321.5 146V145.5H321H309.461H308.961V146C308.961 153.661 308.67 160.13 308.092 165.41C307.514 170.659 306.593 174.923 305.341 178.217L305.34 178.219C304.234 181.163 302.793 183.527 301.026 185.329L289.019 145.854L288.911 145.5H288.541H276.379H275.694L275.902 146.152L290.449 191.679C286.623 193.003 281.288 193.751 274.417 193.902ZM300.785 186.256C300.922 186.131 301.058 186.002 301.191 185.871L300.624 185.724L300.785 186.256Z" stroke="#171616" stroke-opacity="0.4"/>
</svg>
